<svg width="640" height="640" viewBox="0 0 640 640" fill="none" xmlns="http://www.w3.org/2000/svg">
  <rect width="640" height="640" rx="320" fill="#111827"/>
  <circle cx="394" cy="150" r="164" fill="url(#halo)" opacity=".7"/>
  <path d="M154 620c17-116 88-190 166-190s149 74 166 190H154Z" fill="#161D25"/>
  <path d="M242 360c28 29 91 29 118 0v78c0 33-26 60-59 60s-59-27-59-60v-78Z" fill="#B98768"/>
  <path d="M184 280c0-86 53-154 124-154s124 68 124 154c0 96-56 157-124 157s-124-61-124-157Z" fill="#CFA17E"/>
  <path d="M159 283c-21-2-37-19-34-42 2-22 19-35 38-29l18 65-22 6Z" fill="#CFA17E"/>
  <path d="M456 283c21-2 37-19 34-42-2-22-19-35-38-29l-18 65 22 6Z" fill="#CFA17E"/>
  <path d="M167 250c-7-83 46-154 127-166 78-12 145 42 157 120 6 38-2 74-19 104-7-74-40-125-99-153-45 50-100 82-166 95Z" fill="#16110F"/>
  <path d="M197 283c36-4 73-19 108-46 37 33 76 52 119 57-7 87-55 143-116 143-56 0-102-48-111-154Z" fill="#DAB391" opacity=".3"/>
  <path d="M148 620c17-104 90-182 180-182h16c90 0 163 78 180 182H148Z" fill="#0D1117"/>
  <path d="M249 462 320 620l88-154c65 34 105 90 116 154H148c10-62 48-117 101-158Z" fill="#202932"/>
  <path d="M320 620 249 462c18-14 41-23 66-24l17 41 32-41c16 2 31 8 44 28L320 620Z" fill="#E88736" opacity=".84"/>
  <path d="M482 619c-12-65-50-121-106-154" stroke="#E0E5EC" stroke-opacity=".14" stroke-width="10" stroke-linecap="round"/>
  <defs>
    <radialGradient id="halo" cx="0" cy="0" r="1" gradientUnits="userSpaceOnUse" gradientTransform="translate(394 150) rotate(90) scale(164)">
      <stop stop-color="#FFFFFF" stop-opacity=".4"/>
      <stop offset=".54" stop-color="#E88736" stop-opacity=".17"/>
      <stop offset="1" stop-color="#111827" stop-opacity="0"/>
    </radialGradient>
  </defs>
</svg>
